PathFileType	4	(X/Y/Z)	S1_rest_fast_right.trc
DataRate	CameraRate	NumFrames	NumMarkers	Units	OrigDataRate	OrigDataStartFrame	OrigNumFrames
250.00	250.00	17	18	mm	250.00	10807	21613
Frame#	Time	c7	r_should	l_should	clavicle	r_upa	r_elb_l	r_elb_m	r_low	r_wri_l	r_wri_m	r_met	l_upa	l_elb_l	l_elb_m	l_low	l_wri_l	l_wri_m	l_met
	X1	Y1	Z1	X2	Y2	Z2	X3	Y3	Z3	X4	Y4	Z4	X5	Y5	Z5	X6	Y6	Z6	X7	Y7	Z7	X8	Y8	Z8	X9	Y9	Z9	X10	Y10	Z10	X11	Y11	Z11	X12	Y12	Z12	X13	Y13	Z13	X14	Y14	Z14	X15	Y15	Z15	X16	Y16	Z16	X17	Y17	Z17	X18	Y18	Z18
10807	43.22400	415.89783	1415.25476	116.69955	456.71021	1366.03955	283.04303	475.06772	1363.28625	-77.15885	562.62335	1306.65808	103.83209	512.87244	1166.30884	333.19028	538.83948	1122.40845	339.01157	549.58234	1062.83020	244.72772	641.69440	1146.14294	291.88922	652.96082	1252.91455	306.02301	668.64813	1235.16199	235.18925	715.77039	1309.81189	317.35803	485.57718	1147.60522	-135.09497	501.03152	1066.55383	-148.16957	430.85361	1031.05408	-84.13013	498.70081	919.74335	-157.77156	585.72351	856.42603	-100.01763	535.46722	830.22095	-146.76791	630.23895	785.76221	-114.31264
10808	43.22800	415.83624	1415.25488	116.68728	456.68979	1366.05359	283.02966	474.96439	1363.27637	-77.17714	562.55267	1306.64185	103.79180	512.81061	1166.31885	333.17258	538.76953	1122.39368	338.98346	549.36469	1062.79211	244.53050	641.64105	1146.10803	291.86945	652.93970	1252.88062	306.00851	668.63739	1235.12048	235.18254	715.74939	1309.78125	317.34930	485.44012	1147.58496	-135.07977	500.90945	1066.51965	-148.12338	430.72397	1031.04468	-84.08366	498.54642	919.73651	-157.73232	585.58020	856.40759	-99.98283	535.31335	830.19122	-146.72057	630.08466	785.73785	-114.29439
10809	43.23200	415.77560	1415.25330	116.68317	456.66742	1366.06775	283.01462	474.86496	1363.26245	-77.19215	562.48822	1306.63635	103.75555	512.74854	1166.32104	333.14438	538.70465	1122.37195	338.95172	549.25403	1062.79114	244.45453	641.58875	1146.07080	291.85095	652.92035	1252.84277	305.99319	668.62756	1235.07922	235.17171	715.72559	1309.74634	317.33548	485.31064	1147.56348	-135.06793	500.76883	1066.50012	-148.10548	430.59033	1031.03748	-84.03079	498.39868	919.73480	-157.70514	585.43494	856.38263	-99.94991	535.15326	830.16827	-146.67856	629.92957	785.70081	-114.26941
10810	43.23600	415.71851	1415.25183	116.66883	456.64294	1366.07812	283.00027	474.77106	1363.25122	-77.21287	562.42670	1306.63391	103.71629	512.67761	1166.30762	333.10742	538.64697	1122.35669	338.92746	549.17120	1062.79211	244.39850	641.54303	1146.04236	291.82944	652.90222	1252.80676	305.98450	668.61377	1235.04138	235.16148	715.70868	1309.70850	317.32974	485.18817	1147.54443	-135.06123	500.53174	1066.56287	-148.27884	430.45517	1031.02881	-83.98306	498.26093	919.70599	-157.66748	585.28247	856.35669	-99.92102	534.99078	830.14288	-146.63609	629.77087	785.66400	-114.24225
10811	43.24000	415.65735	1415.25513	116.66621	456.61639	1366.08752	282.99231	474.67126	1363.24451	-77.23357	562.36914	1306.63342	103.69104	512.60132	1166.28552	333.07645	538.59290	1122.34106	338.89520	549.13007	1062.79895	244.34500	641.49841	1146.00281	291.80215	652.88025	1252.77014	305.97348	668.59503	1234.99939	235.14676	715.70874	1309.67664	317.32834	485.06845	1147.52515	-135.04919	500.18054	1066.71802	-148.66003	430.32016	1031.02722	-83.94701	498.12469	919.65350	-157.62433	585.12433	856.33136	-99.88571	534.82019	830.12030	-146.59882	629.61218	785.62769	-114.20822
10812	43.24400	415.58432	1415.25781	116.65865	456.59143	1366.09253	282.97925	474.57346	1363.24451	-77.24294	562.30615	1306.64795	103.66203	512.53186	1166.27356	333.05490	538.54340	1122.32434	338.86145	549.04974	1062.80896	244.30125	641.45648	1145.96558	291.76886	652.86981	1252.72876	305.95886	668.57471	1234.95935	235.13530	715.69696	1309.64124	317.32434	484.94778	1147.50696	-135.03282	499.99484	1066.74634	-148.73770	430.17422	1031.03589	-83.90411	497.98462	919.61737	-157.59018	584.96899	856.30176	-99.85316	534.65344	830.10254	-146.55788	629.45331	785.58539	-114.16331
10813	43.24800	415.51740	1415.25354	116.65281	456.55280	1366.09949	282.96637	474.48096	1363.24719	-77.25203	562.23883	1306.66492	103.63002	512.45715	1166.25293	333.02026	538.49371	1122.30688	338.83069	548.98804	1062.82031	244.25929	641.40930	1145.92883	291.73343	652.85419	1252.69153	305.94476	668.55078	1234.92297	235.11993	715.68286	1309.60645	317.30927	484.82703	1147.49963	-135.02609	499.85950	1066.74023	-148.74368	430.03091	1031.04419	-83.86628	497.83621	919.59198	-157.56059	584.80994	856.27332	-99.82628	534.48584	830.08612	-146.52931	629.28699	785.54535	-114.12183
10814	43.25200	415.44809	1415.24927	116.65369	456.50336	1366.10242	282.96246	474.38763	1363.24512	-77.26237	562.17993	1306.68311	103.60069	512.38110	1166.22424	332.99509	538.44714	1122.29419	338.79791	548.95355	1062.83630	244.20380	641.36328	1145.89905	291.68948	652.83203	1252.65991	305.92758	668.52948	1234.89258	235.09961	715.66907	1309.58215	317.29956	484.71344	1147.49927	-135.01450	499.71237	1066.75537	-148.74669	429.89578	1031.05542	-83.82625	497.68225	919.57709	-157.53746	584.63934	856.25372	-99.80090	534.30640	830.07349	-146.50122	629.10089	785.50818	-114.08717
10815	43.25600	415.37338	1415.24597	116.65263	456.45255	1366.10657	282.95691	474.29187	1363.24756	-77.26532	562.13202	1306.70239	103.58699	512.30383	1166.19153	332.97015	538.40375	1122.27185	338.76132	548.94611	1062.86597	244.22049	641.32544	1145.87122	291.65329	652.80670	1252.62842	305.90121	668.51105	1234.87317	235.07629	715.65613	1309.55212	317.29068	484.60275	1147.50842	-135.00706	499.56125	1066.77820	-148.74989	429.76297	1031.06165	-83.79525	497.52390	919.56091	-157.50943	584.46667	856.23456	-99.77485	534.13641	830.05475	-146.46927	628.91357	785.47070	-114.04596
10816	43.26000	415.29742	1415.24341	116.65099	456.40094	1366.10364	282.95761	474.19940	1363.24976	-77.27159	562.07520	1306.71948	103.57121	512.23840	1166.16345	332.93835	538.35828	1122.25000	338.72488	548.97168	1062.90186	244.25987	641.29114	1145.85718	291.61075	652.78223	1252.60388	305.87839	668.49603	1234.85608	235.05548	715.63635	1309.51941	317.28174	484.48569	1147.51587	-135.00330	499.47214	1066.71667	-148.69057	429.62073	1031.07190	-83.77744	497.35812	919.55438	-157.48462	584.28998	856.21423	-99.75009	533.95990	830.03235	-146.44734	628.71527	785.42920	-114.01283
10817	43.26400	415.22369	1415.23767	116.64813	456.33905	1366.09924	282.95041	474.11679	1363.25610	-77.27589	562.01855	1306.72461	103.56492	512.18280	1166.13660	332.89844	538.31134	1122.22766	338.68933	548.84241	1062.86353	244.10632	641.26471	1145.84155	291.56644	652.75745	1252.58032	305.85394	668.49133	1234.83936	235.03290	715.62170	1309.49023	317.27023	484.37747	1147.52014	-135.00279	499.35776	1066.69336	-148.66881	429.48962	1031.07996	-83.77273	497.19592	919.54181	-157.47154	584.11102	856.18976	-99.73070	533.77686	830.01068	-146.41931	628.51306	785.38647	-113.98569
10818	43.26800	415.15155	1415.22668	116.64417	456.28531	1366.09363	282.93558	474.03787	1363.25720	-77.28298	561.97119	1306.73022	103.55204	512.13489	1166.11584	332.86206	538.27014	1122.19446	338.64172	548.78906	1062.84863	244.03365	641.23682	1145.81470	291.52197	652.74072	1252.55505	305.82904	668.48987	1234.81860	235.00729	715.60962	1309.46094	317.25153	484.26794	1147.52100	-135.00563	499.23969	1066.68323	-148.66336	429.36569	1031.09167	-83.76798	496.90469	919.45734	-157.31134	583.93500	856.16034	-99.71165	533.58582	829.99567	-146.39891	628.30994	785.33661	-113.95531
10819	43.27200	415.08524	1415.21399	116.64000	456.22809	1366.07874	282.93927	473.96640	1363.25610	-77.29087	561.92749	1306.74072	103.53216	512.09326	1166.09912	332.82498	538.23553	1122.16614	338.60083	548.74078	1062.83752	243.97231	641.20624	1145.78247	291.47958	652.72913	1252.52893	305.79950	668.48718	1234.78943	234.98180	715.60168	1309.43921	317.23807	484.16327	1147.52515	-135.01144	499.15833	1066.63123	-148.55435	429.23389	1031.11194	-83.76932	496.44635	919.28461	-156.97377	583.75519	856.12927	-99.69591	533.39838	829.97327	-146.38242	628.09851	785.28882	-113.92816
10820	43.27600	415.01804	1415.20715	116.63887	456.17355	1366.06055	282.92508	473.89987	1363.25500	-77.30119	561.87842	1306.75610	103.50954	512.05908	1166.08447	332.79468	538.19812	1122.14319	338.56284	548.68677	1062.82422	243.91824	641.17767	1145.74438	291.43024	652.71912	1252.50281	305.76587	668.48218	1234.75977	234.94798	715.59912	1309.41626	317.21796	484.05624	1147.52454	-135.02048	499.08762	1066.57129	-148.41023	429.08786	1031.12964	-83.76804	496.20132	919.23303	-156.87978	583.56891	856.09277	-99.68704	533.21027	829.95941	-146.36624	627.89337	785.23749	-113.89824
10821	43.28000	414.94781	1415.19006	116.62812	456.12302	1366.03125	282.91977	473.83945	1363.25940	-77.32155	561.82794	1306.76501	103.49643	512.02502	1166.07324	332.77127	538.16803	1122.12085	338.52643	548.71594	1062.83887	243.92834	641.14886	1145.70667	291.39130	652.71460	1252.47473	305.73230	668.47656	1234.72583	234.91946	715.58789	1309.38281	317.19940	483.95685	1147.51941	-135.02829	498.99875	1066.55237	-148.42647	428.95831	1031.14844	-83.77882	496.15158	919.28009	-157.00143	583.37988	856.05121	-99.68373	533.01990	829.95068	-146.35402	627.68066	785.18604	-113.87625
10822	43.28400	414.88174	1415.17969	116.61922	456.07169	1365.99365	282.91458	473.78690	1363.26294	-77.33009	561.78040	1306.77844	103.48299	511.99759	1166.05896	332.73914	538.13733	1122.09668	338.49207	548.81488	1062.88269	244.01888	641.12598	1145.67712	291.35733	652.70819	1252.44617	305.70160	668.47247	1234.69385	234.89006	715.57928	1309.34741	317.17957	483.86600	1147.51379	-135.04366	498.97998	1066.46692	-148.26732	428.83218	1031.17151	-83.78432	496.27948	919.41620	-157.32140	583.17944	856.00745	-99.67783	532.83173	829.93170	-146.34138	627.46338	785.12708	-113.85361
10823	43.28800	414.81845	1415.17310	116.60296	456.02087	1365.95972	282.91034	473.73785	1363.26270	-77.33928	561.72736	1306.79065	103.46812	511.97409	1166.03723	332.70242	538.10944	1122.07727	338.44907	548.81458	1062.87073	244.02213	641.10278	1145.64539	291.31479	652.70319	1252.41736	305.66919	668.46448	1234.66748	234.85358	715.56348	1309.30676	317.15674	483.77066	1147.51074	-135.05615	498.67761	1066.61682	-148.61610	428.69998	1031.19409	-83.79637	496.18375	919.44073	-157.40401	582.97742	855.96606	-99.67517	532.63324	829.91180	-146.33556	627.25085	785.06952	-113.83219
